<svg width="92" height="92" viewBox="0 0 92 92" fill="none" xmlns="http://www.w3.org/2000/svg">
<path d="M35.2188 54.0333V63.969C35.2188 71.3372 39.6538 77.6698 46 80.4424M56.3586 81.9377C63.139 81.9377 68.8545 77.3772 70.6046 71.1565" stroke="#004482" stroke-width="5.75" stroke-linecap="round"/>
<path d="M47.0267 13.6562H47.3563C48.4804 13.6562 49.0428 13.6563 49.5165 13.6982C54.721 14.1584 58.8462 18.2837 59.3062 23.4878C59.3483 23.9617 59.3483 24.5239 59.3483 25.6482V28.8768C59.3483 32.4056 58.6216 35.7646 57.3099 38.8125M22.3839 13.6562H22.0545C20.9301 13.6562 20.368 13.6563 19.8941 13.6982C14.6899 14.1584 10.5646 18.2837 10.1044 23.4878C10.0625 23.9617 10.0625 24.5239 10.0625 25.6482V29.9036C10.0625 43.2299 20.8656 54.0331 34.192 54.0331C38.0502 54.0331 41.7055 53.1645 44.9733 51.6124" stroke="#004482" stroke-width="5.75" stroke-linecap="round"/>
<path d="M60.375 60.375C60.375 63.2344 61.5109 65.9766 63.5328 67.9985C65.5546 70.0204 68.2969 71.1562 71.1562 71.1562C74.0156 71.1562 76.7579 70.0204 78.7797 67.9985C80.8016 65.9766 81.9375 63.2344 81.9375 60.375C81.9375 57.5156 80.8016 54.7734 78.7797 52.7515C76.7579 50.7296 74.0156 49.5938 71.1562 49.5938C68.2969 49.5938 65.5546 50.7296 63.5328 52.7515C61.5109 54.7734 60.375 57.5156 60.375 60.375Z" stroke="#004482" stroke-width="5.75"/>
<path d="M46 10.0625V17.25" stroke="#004482" stroke-width="5.75" stroke-linecap="round"/>
<path d="M24.4375 10.0625V17.25" stroke="#004482" stroke-width="5.75" stroke-linecap="round"/>
</svg>
