<svg width="92" height="92" viewBox="0 0 92 92" fill="none" xmlns="http://www.w3.org/2000/svg">
<path d="M56.7812 49.5938H46M46 49.5938H35.2188M46 49.5938V38.8125M46 49.5938V60.375" stroke="#004482" stroke-width="5.75" stroke-linecap="round"/>
<path d="M80.629 49.443L79.6274 56.4056C77.8755 68.579 76.9997 74.6658 72.777 78.3019C68.554 81.9381 62.3609 81.9381 49.975 81.9381H42.0249C29.639 81.9381 23.4459 81.9381 19.2231 78.3019C15.0002 74.6658 14.1243 68.579 12.3727 56.4056L11.3709 49.443C10.0073 39.9663 9.32545 35.2277 11.2677 31.1763C13.21 27.125 17.3441 24.6623 25.6123 19.7369L30.5891 16.7723C38.0975 12.2996 41.8517 10.0632 46 10.0632C50.1483 10.0632 53.9027 12.2996 61.4107 16.7723L66.3877 19.7369C74.6558 24.6623 78.7901 27.125 80.7321 31.1763" stroke="#004482" stroke-width="5.75" stroke-linecap="round"/>
</svg>
