<svg width="10" height="6" viewBox="0 0 10 6" fill="none" xmlns="http://www.w3.org/2000/svg">
<path d="M4.99961 5.58125C4.92461 5.58125 4.85583 5.56876 4.79336 5.54375C4.73085 5.51878 4.66833 5.47501 4.60586 5.4125L0.893359 1.7C0.780859 1.5875 0.724609 1.45625 0.724609 1.30625C0.724609 1.15625 0.780859 1.025 0.893359 0.912502C1.00586 0.800002 1.13711 0.743752 1.28711 0.743752C1.43711 0.743752 1.56836 0.800002 1.68086 0.912502L4.99961 4.23125L8.31836 0.912502C8.43086 0.800002 8.56211 0.743752 8.71211 0.743752C8.86211 0.743752 8.99336 0.800002 9.10586 0.912502C9.21836 1.025 9.27461 1.15625 9.27461 1.30625C9.27461 1.45625 9.21836 1.5875 9.10586 1.7L5.39336 5.4125C5.33085 5.47501 5.26833 5.51878 5.20586 5.54375C5.14335 5.56876 5.07461 5.58125 4.99961 5.58125Z" fill="#E5FAFE"/>
</svg>
