<svg width="320" height="160" viewBox="0 0 320 160" fill="none" xmlns="http://www.w3.org/2000/svg">
<path d="M53.0973 101.315C42.9962 100.37 35.074 91.8322 35.074 81.4209C35.074 71.0261 42.9797 62.4881 53.0973 61.5266V54.0994C38.9031 55.0775 27.6797 66.9146 27.6797 81.4209C27.6797 95.9269 38.9031 107.764 53.0973 108.742V101.315Z" fill="#002845"/>
<path d="M57.1406 61.5266C67.2417 62.4715 75.164 71.0096 75.164 81.4209C75.164 91.8157 67.2581 100.353 57.1406 101.315V108.742C71.3349 107.764 82.5582 95.9269 82.5582 81.4209C82.5582 66.9146 71.3349 55.0775 57.1406 54.0994V61.5266Z" fill="#002845"/>
<path d="M17.6687 86.2615C20.3578 86.2615 22.5376 84.0719 22.5376 81.3709C22.5376 78.6698 20.3578 76.4802 17.6687 76.4802C14.9797 76.4802 12.7998 78.6698 12.7998 81.3709C12.7998 84.0719 14.9797 86.2615 17.6687 86.2615Z" fill="#002845"/>
<path d="M64.8066 86.2615C67.4954 86.2615 69.6755 84.0719 69.6755 81.3709C69.6755 78.6698 67.4954 76.4802 64.8066 76.4802C62.1175 76.4802 59.9375 78.6698 59.9375 81.3709C59.9375 84.0719 62.1175 86.2615 64.8066 86.2615Z" fill="#002845"/>
<path d="M204.4 89.394L201.955 96.5126L199.536 89.394H195.376L199.5 100.149C199.239 100.704 198.442 100.958 197.185 100.958C196.22 100.958 195.476 100.838 194.612 100.518V104.079C195.537 104.399 196.441 104.519 197.345 104.519C201.466 104.519 203.556 101.918 205.144 97.7968L208.36 89.394H204.4Z" fill="#002845"/>
<path d="M189.427 91.1461V89.3941H185.728V100.198H189.587V94.9794C190.345 93.4576 191.339 92.8552 193.024 92.8552C193.507 92.8552 193.808 92.9154 194.291 93.0753V89.3941C193.889 89.2942 193.607 89.2542 193.105 89.2542C191.39 89.2542 190.378 89.8342 189.427 91.1461Z" fill="#002845"/>
<path d="M184.181 89.3939H180.321C180.402 91.8098 179.24 93.0494 176.663 93.0751V85.3926H172.804V100.198H176.663V96.5164C177.221 96.5149 177.777 96.4726 178.328 96.3904L180.241 100.198H184.643L181.731 95.0125C183.288 93.7986 184.125 91.8844 184.181 89.3939Z" fill="#002845"/>
<path d="M162.636 100.038L159.12 91.0549H160.912L163.455 98.0835L165.981 91.0549H167.722L164.121 100.038H162.636Z" fill="#002845"/>
<path d="M149.998 97.4491C149.998 95.5977 151.278 94.5177 153.496 94.5177C154.623 94.5177 155.51 94.8777 156.278 95.5977V94.7405C156.278 93.112 155.596 92.2548 153.752 92.2548C152.66 92.2548 151.636 92.5291 150.629 93.0777V91.6205C151.739 91.0548 152.694 90.8491 153.923 90.8491C156.637 90.8491 157.831 92.0663 157.831 94.5863V100.038H156.278V98.8891C155.544 99.7463 154.469 100.226 153.07 100.226C151.175 100.226 149.998 99.1806 149.998 97.4491ZM151.602 97.3634C151.602 98.3405 152.251 98.9063 153.36 98.9063C154.776 98.9063 155.818 98.2891 156.244 97.0891C155.493 96.232 154.623 95.7863 153.531 95.7863C152.285 95.7863 151.602 96.352 151.602 97.3634Z" fill="#002845"/>
<path d="M141.016 97.7063V87.9863H142.569V97.4492C142.569 98.392 142.757 98.8035 144.003 98.8035C144.344 98.8035 144.788 98.752 145.283 98.5635V99.9349C144.771 100.141 144.207 100.209 143.678 100.209C141.699 100.209 141.016 99.352 141.016 97.7063Z" fill="#002845"/>
<path d="M138.285 98.0834V99.4548C137.517 99.9691 136.305 100.226 135.127 100.226C132.021 100.226 130.451 98.4948 130.451 95.6834C130.451 92.752 132.175 90.8491 134.735 90.8491C137.278 90.8491 138.848 92.7177 138.848 95.4777C138.848 95.7691 138.831 95.9234 138.814 96.0948H132.09C132.226 97.9634 133.199 98.8548 135.23 98.8548C136.305 98.8548 137.38 98.6148 138.285 98.0834ZM134.718 92.2034C133.233 92.2034 132.311 93.1977 132.107 94.912H137.21C137.056 93.1634 136.186 92.2034 134.718 92.2034Z" fill="#002845"/>
<path d="M119.201 95.5635C119.201 92.5463 121.078 90.8492 123.417 90.8492C124.85 90.8492 125.925 91.5006 126.659 92.7006V87.9863H128.212V100.038H126.659V98.2549C125.908 99.5406 124.85 100.209 123.399 100.209C121.061 100.209 119.201 98.5463 119.201 95.5635ZM120.839 95.5463C120.839 97.6206 122 98.8206 123.536 98.8206C125.209 98.8206 126.318 97.432 126.659 95.5806V95.4606C126.318 93.6092 125.055 92.2378 123.536 92.2378C122 92.2378 120.839 93.3006 120.839 95.5463Z" fill="#002845"/>
<path d="M105.133 100.038V91.0548H106.686V93.0091C107.556 91.552 108.665 90.8491 110.065 90.8491C111.669 90.8491 113.052 91.7234 113.052 94.5005V100.038H111.498V94.672C111.498 92.992 110.782 92.2548 109.706 92.2548C108.341 92.2548 107.437 93.1977 106.686 95.1691V100.038H105.133Z" fill="#002845"/>
<path d="M96.2383 100.038V87.9863H102.894V89.4263H97.8426V93.2835H102.16V94.7063H97.8426V98.5978H102.894V100.038H96.2383Z" fill="#002845"/>
<path d="M94.9834 76.2856V59.7148H102.352C105.473 59.7148 108.594 61.742 108.594 65.7492C108.594 69.5913 105.45 71.8306 102.352 71.8306H99.6298V76.2856H94.9834ZM100.897 63.3684H99.6298V68.177H100.921C102.915 68.177 103.971 67.3992 103.971 65.7727C103.971 64.1935 102.962 63.3684 100.897 63.3684Z" fill="#002845"/>
<path d="M114.867 76.6629C112.521 76.6629 111.113 76.0971 109.986 75.4371V71.8543C111.042 72.6557 113.389 73.4807 115.008 73.4807C116.205 73.4807 116.815 73.0564 116.815 72.585C116.815 70.9821 109.775 72.585 109.775 67.7057C109.775 64.9243 112.075 63.1328 115.736 63.1328C117.801 63.1328 119.303 63.5807 120.57 64.2171V67.7764C119.42 67.14 117.472 66.48 115.994 66.48C114.797 66.48 114.21 66.9043 114.21 67.3993C114.21 68.9786 121.25 67.47 121.25 72.0664C121.25 74.7536 118.833 76.6629 114.867 76.6629Z" fill="#002845"/>
<path d="M136.583 63.6042L131.373 75.9557C129.472 80.4342 127.172 81.6364 124.028 81.6364C122.737 81.6364 121.728 81.4478 120.696 81.0235V77.1107C121.517 77.3935 122.69 77.6057 123.699 77.6057C124.685 77.6057 125.788 77.3464 126.539 76.6628L121.282 63.6042H126.515L128.886 71.5478L131.655 63.6042H136.583Z" fill="#002845"/>
<path d="M137.856 76.2856V59.7148H142.338V67.8706C145.694 67.517 146.281 65.6077 146.281 63.6042H150.763C150.763 66.4327 149.496 68.4599 147.689 69.7799L151.256 76.2856H146.163L143.911 71.4299C143.394 71.5477 142.855 71.642 142.338 71.6892V76.2856H137.856Z" fill="#002845"/>
<path d="M152.287 59.8328C152.287 58.3242 153.46 57.3813 154.822 57.3813C156.159 57.3813 157.356 58.2771 157.356 59.8328C157.356 61.2942 156.23 62.2606 154.822 62.2606C153.554 62.2606 152.287 61.3885 152.287 59.8328ZM152.569 76.2857V63.6042H157.051V76.2857H152.569Z" fill="#002845"/>
<path d="M158.582 72.7029C158.582 69.9922 160.412 68.4129 163.603 68.4129C165.082 68.4129 166.232 68.8372 167.194 69.7329V69.3558C167.194 67.4229 166.466 66.8337 164.073 66.8337C162.43 66.8337 160.881 67.3051 159.473 67.8708V64.3115C161.304 63.5337 162.899 63.2036 164.964 63.2036C169.634 63.2036 171.699 64.8301 171.699 68.5779V76.2858H167.194V75.0129C166.161 76.1915 164.918 76.7101 163.251 76.7101C160.271 76.7101 158.582 75.2958 158.582 72.7029ZM162.852 72.4908C162.852 73.3158 163.439 73.7401 164.566 73.7401C165.715 73.7401 166.631 73.2215 167.147 72.3258C166.631 71.5951 165.739 71.1472 164.636 71.1472C163.533 71.1001 162.852 71.6187 162.852 72.4908Z" fill="#002845"/>
<path d="M175.032 71.9721V66.9278H172.991V63.6042H175.032V60.5635H179.514V63.6042H183.997V66.9278H179.514V70.6757C179.514 71.9249 180.148 72.6085 181.626 72.6085C182.237 72.6085 183.081 72.4907 183.997 72.1842V75.9085C182.776 76.4271 181.626 76.5921 180.289 76.5921C176.886 76.5921 175.032 74.9892 175.032 71.9721Z" fill="#002845"/>
<path d="M185.523 76.2856V63.6042H190.005V65.2542C190.967 63.9813 192.187 63.3684 193.76 63.3684C194.041 63.3684 194.323 63.392 194.628 63.4627V67.4699C194.393 67.3992 193.595 67.3285 193.22 67.3285C191.789 67.3285 190.662 68.2006 190.005 69.7327V76.2856H185.523Z" fill="#002845"/>
<path d="M195.852 59.8328C195.852 58.3242 197.025 57.3813 198.386 57.3813C199.724 57.3813 200.92 58.2771 200.92 59.8328C200.92 61.2942 199.794 62.2606 198.386 62.2606C197.119 62.2606 195.852 61.3885 195.852 59.8328ZM196.133 76.2857V63.6042H200.615V76.2857H196.133Z" fill="#002845"/>
<path d="M206.98 63.6044V65.0187C207.989 63.8165 209.327 63.2036 210.97 63.2036C214.231 63.2036 217.118 65.5372 217.118 69.9922C217.118 74.4708 214.02 76.6629 210.97 76.6629C209.421 76.6629 208.177 76.0265 207.238 74.9187V81.2594H202.756V63.6044H206.98ZM209.96 66.9044C208.811 66.9044 207.802 67.8001 207.004 69.9922C207.637 71.9251 208.858 72.9858 209.96 72.9858C211.298 72.9858 212.401 71.8544 212.401 69.9215C212.401 68.0829 211.322 66.9044 209.96 66.9044Z" fill="#002845"/>
<path d="M218.165 72.7029C218.165 69.9922 219.996 68.4129 223.187 68.4129C224.666 68.4129 225.815 68.8372 226.778 69.7329V69.3558C226.778 67.4229 226.05 66.8337 223.656 66.8337C222.014 66.8337 220.465 67.3051 219.057 67.8708V64.3115C220.887 63.5337 222.483 63.2036 224.548 63.2036C229.218 63.2036 231.283 64.8301 231.283 68.5779V76.2858H226.778V75.0129C225.745 76.1915 224.501 76.7101 222.835 76.7101C219.855 76.7101 218.165 75.2958 218.165 72.7029ZM222.436 72.4908C222.436 73.3158 223.023 73.7401 224.149 73.7401C225.299 73.7401 226.214 73.2215 226.731 72.3258C226.214 71.5951 225.323 71.1472 224.22 71.1472C223.117 71.1001 222.436 71.6187 222.436 72.4908Z" fill="#002845"/>
<path d="M233.419 76.2856V63.6042H237.901V65.2542C238.863 63.9813 240.083 63.3684 241.656 63.3684C241.937 63.3684 242.219 63.392 242.524 63.4627V67.4699C242.289 67.3992 241.491 67.3285 241.116 67.3285C239.684 67.3285 238.558 68.2006 237.901 69.7327V76.2856H233.419Z" fill="#002845"/>
<path d="M245.41 71.9721V66.9278H243.369V63.6042H245.41V60.5635H249.892V63.6042H254.374V66.9278H249.892V70.6757C249.892 71.9249 250.526 72.6085 252.004 72.6085C252.614 72.6085 253.459 72.4907 254.374 72.1842V75.9085C253.154 76.4271 252.004 76.5921 250.667 76.5921C247.264 76.5921 245.41 74.9892 245.41 71.9721Z" fill="#002845"/>
<path d="M255.9 76.2858V63.6043H260.382V65.3722C261.461 64.0286 262.916 63.2507 264.653 63.2507C267.844 63.2507 269.604 64.9008 269.604 69.1672V76.2858H265.099V69.3322C265.099 67.6586 264.723 66.9515 263.409 66.9515C262.212 66.9515 261.156 67.7529 260.382 69.5915V76.2858H255.9Z" fill="#002845"/>
<path d="M283.637 72.2787V75.5787C281.877 76.4744 280.258 76.7337 278.592 76.7337C273.242 76.7337 271.083 74.1172 271.083 70.1808C271.083 65.7494 273.805 63.2036 277.888 63.2036C281.971 63.2036 284.506 65.6787 284.506 69.9215C284.506 70.4401 284.459 70.8644 284.388 71.2651H275.846C276.222 72.7265 277.278 73.2687 279.132 73.2687C280.563 73.2687 282.206 72.9387 283.637 72.2787ZM277.841 66.5508C276.55 66.5508 275.893 67.3994 275.729 68.8844H279.906C279.765 67.3758 279.108 66.5508 277.841 66.5508Z" fill="#002845"/>
<path d="M286.15 76.2856V63.6042H290.633V65.2542C291.595 63.9813 292.815 63.3684 294.387 63.3684C294.669 63.3684 294.95 63.392 295.255 63.4627V67.4699C295.021 67.3992 294.223 67.3285 293.847 67.3285C292.416 67.3285 291.29 68.2006 290.633 69.7327V76.2856H286.15Z" fill="#002845"/>
<path d="M301.203 76.6629C298.857 76.6629 297.449 76.0971 296.322 75.4371V71.8543C297.378 72.6557 299.725 73.4807 301.344 73.4807C302.541 73.4807 303.151 73.0564 303.151 72.585C303.151 70.9821 296.111 72.585 296.111 67.7057C296.111 64.9243 298.411 63.1328 302.071 63.1328C304.137 63.1328 305.638 63.5807 306.906 64.2171V67.7764C305.756 67.14 303.808 66.48 302.33 66.48C301.133 66.48 300.546 66.9043 300.546 67.3993C300.546 68.9786 307.586 67.47 307.586 72.0664C307.586 74.7536 305.169 76.6629 301.203 76.6629Z" fill="#002845"/>
</svg>
