<svg width="50" height="51" viewBox="0 0 50 51" fill="none" xmlns="http://www.w3.org/2000/svg">
<rect y="0.5" width="50" height="50" rx="20" fill="#E5FAFE"/>
<g clip-path="url(#clip0_46_7111)">
<path d="M12.8354 36.1347H36.5141C37.6227 36.1347 38.5215 35.209 38.5215 34.0673V16.273C38.5215 15.1313 37.6227 14.2056 36.5141 14.2056H12.8354C11.7269 14.2056 10.8281 15.1313 10.8281 16.273V34.0673C10.8281 35.209 11.7269 36.1347 12.8354 36.1347Z" fill="#004482"/>
<path d="M13.2453 34.6947H36.1051C36.8442 34.6947 37.4434 34.0776 37.4434 33.3164V17.0342C37.4434 16.2731 36.8442 15.6559 36.1051 15.6559H13.2553C12.5163 15.6559 11.9171 16.2731 11.9171 17.0342V33.3164C11.9071 34.0776 12.5063 34.6947 13.2453 34.6947Z" fill="url(#paint0_linear_46_7111)"/>
<path d="M9.09093 20.2433V35.4456C9.09093 36.5873 9.98975 37.513 11.0983 37.513H38.2624C39.361 37.513 40.2598 36.5873 40.2598 35.4456V14.9051C40.2598 13.7634 39.361 12.8376 38.2524 12.8376H25.689C24.9799 12.8376 24.3308 13.2182 23.9713 13.8456L22.0438 17.1782C21.6843 17.8056 21.0252 18.1862 20.3261 18.1862H11.0983C9.98975 18.1759 9.09093 19.1016 9.09093 20.2433Z" fill="#004482"/>
<path d="M24.6709 22.7839C27.1276 22.7839 29.125 24.841 29.125 27.3713C29.125 29.9016 27.1276 31.9587 24.6709 31.9587C22.2141 31.9587 20.2168 29.9016 20.2168 27.3713C20.2168 24.841 22.2141 22.7839 24.6709 22.7839ZM22.6136 28.009H24.0517V29.5004C24.0517 29.8501 24.3313 30.1381 24.6709 30.1381C25.0104 30.1381 25.2901 29.8501 25.2901 29.5004V28.0193H26.7282C27.0677 28.0193 27.3473 27.7313 27.3473 27.3816C27.3473 27.0319 27.0677 26.7439 26.7282 26.7439H25.2901V25.2627C25.2901 24.913 25.0104 24.625 24.6709 24.625C24.3313 24.625 24.0517 24.913 24.0517 25.2627V26.7439H22.6136C22.274 26.7439 21.9944 27.0319 21.9944 27.3816C21.9944 27.721 22.274 28.009 22.6136 28.009Z" fill="#5A8BB1"/>
</g>
<defs>
<linearGradient id="paint0_linear_46_7111" x1="14.2606" y1="11.6162" x2="24.8281" y2="24.5869" gradientUnits="userSpaceOnUse">
<stop stop-color="#E9FEFF"/>
<stop offset="1" stop-color="#B7E6EA"/>
</linearGradient>
<clipPath id="clip0_46_7111">
<rect width="31.1688" height="24.6753" fill="white" transform="matrix(-1 0 0 1 40.2598 12.8376)"/>
</clipPath>
</defs>
</svg>
