<svg width="50" height="51" viewBox="0 0 50 51" fill="none" xmlns="http://www.w3.org/2000/svg">
<rect y="0.5" width="50" height="50" rx="20" fill="#E5FAFE"/>
<g clip-path="url(#clip0_46_7101)">
<path d="M10.2732 28.5267L9.74023 28.9763L17.4942 29.9284C18.6133 30.378 19.7858 30.6953 21.0115 30.8805C21.4112 26.9664 25.5946 23.8985 30.684 23.8985C32.7357 23.8985 34.6542 24.401 36.2263 25.2738C37.2122 23.7928 37.7718 22.1266 37.7718 20.3547C37.7718 14.4306 31.51 9.59088 23.836 9.59088C16.1619 9.59088 9.90011 14.4306 9.90011 20.3547C9.90011 22.4969 10.6995 24.5333 12.2183 26.3052L12.3782 26.4639C12.1917 26.8077 11.1791 27.7862 10.2732 28.5267ZM14.5632 15.5678H32.7357V16.5464H14.5632V15.5678ZM14.5632 19.2175H32.7357V20.196H14.5632V19.2175ZM14.5632 22.8407H24.1823V23.8192H14.5632V22.8407Z" fill="#004482"/>
<path d="M21.7578 31.5152C21.7578 35.2706 25.7547 38.3384 30.6842 38.3384C31.7767 38.3384 32.8425 38.1797 33.8551 37.8888L34.0683 37.8359L36.573 40.1368V36.6458L36.7328 36.54C38.5448 35.2442 39.584 33.4193 39.584 31.5416C39.584 27.7862 35.5871 24.7184 30.6576 24.7184C25.7547 24.6919 21.7578 27.7597 21.7578 31.5152Z" fill="#8CABC7"/>
<path d="M30.5195 28.4221V34.9156" stroke="white" stroke-width="2" stroke-linecap="round" stroke-linejoin="round"/>
<path d="M27.2734 31.6688H33.7669" stroke="white" stroke-width="2" stroke-linecap="round" stroke-linejoin="round"/>
</g>
<defs>
<clipPath id="clip0_46_7101">
<rect width="29.8701" height="30.5195" fill="white" transform="translate(9.74023 9.59088)"/>
</clipPath>
</defs>
</svg>
