<svg width="62" height="62" viewBox="0 0 62 62" fill="none" xmlns="http://www.w3.org/2000/svg">
<path d="M42.516 6.78125H19.484C16.6774 6.78125 15.2741 6.78125 14.1423 7.17507C11.9961 7.92186 10.3111 9.65648 9.58566 11.8659C9.20313 13.031 9.20312 14.4757 9.20312 17.365V51.2813C9.20312 53.3597 11.5887 54.4626 13.0977 53.0817C13.9843 52.2704 15.3204 52.2704 16.2069 53.0817L17.377 54.1524C18.9308 55.5743 21.2723 55.5743 22.8262 54.1524C24.38 52.7305 26.7215 52.7305 28.2754 54.1524C29.8293 55.5743 32.1707 55.5743 33.7246 54.1524C35.2785 52.7305 37.62 52.7305 39.1738 54.1524C40.7277 55.5743 43.0692 55.5743 44.623 54.1524L45.7931 53.0817C46.6797 52.2704 48.0156 52.2704 48.9023 53.0817C50.4113 54.4626 52.7969 53.3597 52.7969 51.2813V17.365C52.7969 14.4757 52.7969 13.031 52.4142 11.8659C51.6889 9.65648 50.004 7.92186 47.8577 7.17507C46.726 6.78125 45.3227 6.78125 42.516 6.78125Z" stroke="white" stroke-width="3.875"/>
<path d="M24.9453 27.125L28.4052 31L37.0547 21.3125" stroke="white" stroke-width="3.875" stroke-linecap="round" stroke-linejoin="round"/>
<path d="M20.1016 39.4766H41.8984" stroke="white" stroke-width="3.875" stroke-linecap="round"/>
</svg>
