<svg width="50" height="50" viewBox="0 0 50 50" fill="none" xmlns="http://www.w3.org/2000/svg">
<rect width="50" height="50" rx="20" fill="#E5FAFE"/>
<g clip-path="url(#clip0_46_7049)">
<path d="M24.9998 41.5584C34.1448 41.5584 41.5583 34.1449 41.5583 25C41.5583 15.855 34.1448 8.44153 24.9998 8.44153C15.8549 8.44153 8.44141 15.855 8.44141 25C8.44141 34.1449 15.8549 41.5584 24.9998 41.5584Z" fill="#004482"/>
<path opacity="0.55" d="M25.0004 40.0512C33.313 40.0512 40.0516 33.3125 40.0516 25C40.0516 16.6874 33.313 9.94879 25.0004 9.94879C16.6879 9.94879 9.94922 16.6874 9.94922 25C9.94922 33.3125 16.6879 40.0512 25.0004 40.0512Z" fill="white"/>
<path d="M25.0004 38.5121C32.4629 38.5121 38.5125 32.4625 38.5125 25C38.5125 17.5374 32.4629 11.4879 25.0004 11.4879C17.5379 11.4879 11.4883 17.5374 11.4883 25C11.4883 32.4625 17.5379 38.5121 25.0004 38.5121Z" fill="white"/>
<path d="M24.9895 14.5342H24.9577C24.7666 14.5342 24.6074 14.375 24.6074 14.1839V12.4326C24.6074 12.2415 24.7666 12.0823 24.9577 12.0823H24.9895C25.1806 12.0823 25.3398 12.2415 25.3398 12.4326V14.1945C25.3398 14.3856 25.1806 14.5342 24.9895 14.5342Z" fill="#373449"/>
<path d="M25.0325 37.9177H25.0007C24.8096 37.9177 24.6504 37.7585 24.6504 37.5674V35.8054C24.6504 35.6144 24.8096 35.4551 25.0007 35.4551H25.0325C25.2236 35.4551 25.3828 35.6144 25.3828 35.8054V37.5674C25.3934 37.7691 25.2342 37.9177 25.0325 37.9177Z" fill="#373449"/>
<path d="M35.4648 24.9894V24.9575C35.4648 24.7665 35.6241 24.6072 35.8151 24.6072H37.5771C37.7682 24.6072 37.9274 24.7665 37.9274 24.9575V24.9894C37.9274 25.1804 37.7682 25.3396 37.5771 25.3396H35.8151C35.6134 25.3396 35.4648 25.1804 35.4648 24.9894Z" fill="#373449"/>
<path d="M12.082 25.0318V25C12.082 24.8089 12.2412 24.6497 12.4323 24.6497H14.1943C14.3854 24.6497 14.5446 24.8089 14.5446 25V25.0318C14.5446 25.2229 14.3854 25.3821 14.1943 25.3821H12.4323C12.2306 25.3927 12.082 25.2335 12.082 25.0318Z" fill="#373449"/>
<path d="M32.7165 17.2727L32.6953 17.2515C32.5573 17.1135 32.5573 16.8906 32.6953 16.7526L33.3428 16.1051C33.4808 15.9672 33.7037 15.9672 33.8416 16.1051L33.8629 16.1264C34.0009 16.2644 34.0009 16.4873 33.8629 16.6252L33.2154 17.2727C33.0774 17.4001 32.8545 17.4001 32.7165 17.2727Z" fill="#373449"/>
<path d="M16.1482 33.9055L16.1269 33.8842C15.9889 33.7462 15.9889 33.5233 16.1269 33.3854L16.9124 32.5999C17.0504 32.4619 17.2733 32.4619 17.4113 32.5999L17.4325 32.6211C17.5705 32.7591 17.5705 32.982 17.4325 33.12L16.647 33.9055C16.509 34.0434 16.2861 34.0434 16.1482 33.9055Z" fill="#373449"/>
<path d="M32.7264 32.7273L32.7476 32.706C32.8856 32.568 33.1085 32.568 33.2465 32.706L33.894 33.3535C34.032 33.4915 34.032 33.7144 33.894 33.8524L33.8727 33.8736C33.7348 34.0116 33.5119 34.0116 33.3739 33.8736L32.7264 33.2261C32.599 33.0881 32.599 32.8652 32.7264 32.7273Z" fill="#373449"/>
<path d="M16.0937 16.1582L16.115 16.137C16.2529 15.999 16.4758 15.999 16.6138 16.137L17.3993 16.9225C17.5373 17.0605 17.5373 17.2834 17.3993 17.4213L17.3781 17.4426C17.2401 17.5806 17.0172 17.5806 16.8792 17.4426L16.0937 16.6571C15.9557 16.5191 15.9557 16.2962 16.0937 16.1582Z" fill="#373449"/>
<path d="M25.0105 25.2123H24.9787C24.7664 25.2123 24.5859 25.0425 24.5859 24.8195V16.3387C24.5859 16.1264 24.7558 15.9459 24.9787 15.9459H25.0105C25.2228 15.9459 25.4032 16.1158 25.4032 16.3387V24.8195C25.3926 25.0318 25.2228 25.2123 25.0105 25.2123Z" fill="#004482"/>
<path d="M24.5957 25.5307V25.4989C24.5957 25.2866 24.7655 25.1061 24.9884 25.1061H30.8582C31.0705 25.1061 31.2509 25.276 31.2509 25.4989V25.5307C31.2509 25.743 31.0811 25.9234 30.8582 25.9234H24.9884C24.7655 25.9128 24.5957 25.743 24.5957 25.5307Z" fill="#004482"/>
<path d="M31.0826 19.5229L25.043 24.9575" stroke="#373449" stroke-width="2" stroke-miterlimit="10" stroke-linecap="round"/>
<path d="M24.9999 26.4647C25.8089 26.4647 26.4647 25.8089 26.4647 24.9999C26.4647 24.191 25.8089 23.5352 24.9999 23.5352C24.191 23.5352 23.5352 24.191 23.5352 24.9999C23.5352 25.8089 24.191 26.4647 24.9999 26.4647Z" fill="#004482"/>
</g>
<defs>
<clipPath id="clip0_46_7049">
<rect width="33.1169" height="33.1169" fill="white" transform="translate(8.44141 8.44153)"/>
</clipPath>
</defs>
</svg>
