<svg width="62" height="62" viewBox="0 0 62 62" fill="none" xmlns="http://www.w3.org/2000/svg">
<path d="M35.1949 54.661L36.5078 52.443L33.3814 50.5925L32.0685 52.8107L35.1949 54.661ZM25.4921 52.443L26.8051 54.661L29.9312 52.8107L28.6183 50.5925L25.4921 52.443ZM32.0685 52.8107C31.6018 53.5992 30.3982 53.5992 29.9312 52.8107L26.8051 54.661C28.6786 57.8264 33.3214 57.8264 35.1949 54.661L32.0685 52.8107ZM27.3672 8.59766H34.6328V4.96484H27.3672V8.59766ZM53.4023 27.3672V29.7891H57.0352V27.3672H53.4023ZM8.59766 29.7891V27.3672H4.96484V29.7891H8.59766ZM4.96484 29.7891C4.96484 32.5854 4.96385 34.7735 5.08427 36.5383C5.20582 38.3196 5.45704 39.8021 6.02487 41.1728L9.38116 39.7827C9.02722 38.9283 8.81759 37.8873 8.70868 36.2911C8.59865 34.6786 8.59766 32.635 8.59766 29.7891H4.96484ZM20.8342 46.1164C17.7937 46.0638 16.2005 45.8706 14.9517 45.3532L13.5615 48.7095C15.511 49.5169 17.7315 49.6961 20.7716 49.7485L20.8342 46.1164ZM6.02487 41.1728C7.43826 44.585 10.1493 47.2961 13.5615 48.7095L14.9517 45.3532C12.4296 44.3084 10.4258 42.3048 9.38116 39.7827L6.02487 41.1728ZM53.4023 29.7891C53.4023 32.635 53.4014 34.6786 53.2914 36.2911C53.1824 37.8873 52.9727 38.9283 52.6189 39.7827L55.9751 41.1728C56.543 39.8021 56.7942 38.3196 56.9158 36.5383C57.0361 34.7735 57.0352 32.5854 57.0352 29.7891H53.4023ZM41.2283 49.7485C44.2685 49.6961 46.4891 49.5169 48.4385 48.7095L47.0483 45.3532C45.7996 45.8706 44.2062 46.0638 41.1658 46.1164L41.2283 49.7485ZM52.6189 39.7827C51.5741 42.3048 49.5705 44.3084 47.0483 45.3532L48.4385 48.7095C51.8506 47.2961 54.5617 44.585 55.9751 41.1728L52.6189 39.7827ZM34.6328 8.59766C38.6318 8.59766 41.5037 8.59957 43.7437 8.81255C45.9568 9.02296 47.3648 9.42649 48.4874 10.1144L50.3857 7.01695C48.5961 5.92044 46.5664 5.43176 44.0876 5.19606C41.6357 4.96293 38.5616 4.96484 34.6328 4.96484V8.59766ZM57.0352 27.3672C57.0352 23.4384 57.0371 20.3643 56.8039 17.9125C56.5682 15.4335 56.0795 13.4037 54.9831 11.6144L51.8855 13.5126C52.5736 14.6352 52.9771 16.0433 53.1875 18.2563C53.4004 20.4963 53.4023 23.3681 53.4023 27.3672H57.0352ZM48.4874 10.1144C49.8725 10.9632 51.0369 12.1276 51.8855 13.5126L54.9831 11.6144C53.8349 9.74064 52.2595 8.16521 50.3857 7.01695L48.4874 10.1144ZM27.3672 4.96484C23.4384 4.96484 20.3643 4.96293 17.9125 5.19606C15.4335 5.43176 13.4037 5.92044 11.6144 7.01695L13.5126 10.1144C14.6352 9.42649 16.0433 9.02296 18.2563 8.81255C20.4963 8.59957 23.3681 8.59766 27.3672 8.59766V4.96484ZM8.59766 27.3672C8.59766 23.3681 8.59957 20.4963 8.81255 18.2563C9.02296 16.0433 9.42649 14.6352 10.1144 13.5126L7.01695 11.6144C5.92044 13.4037 5.43176 15.4335 5.19606 17.9125C4.96293 20.3643 4.96484 23.4384 4.96484 27.3672H8.59766ZM11.6144 7.01695C9.74064 8.16521 8.16521 9.74064 7.01695 11.6144L10.1144 13.5126C10.9632 12.1276 12.1276 10.9632 13.5126 10.1144L11.6144 7.01695ZM28.6183 50.5925C28.1267 49.7618 27.6951 49.0287 27.2754 48.4528C26.8332 47.8463 26.3263 47.3002 25.6231 46.8911L23.7967 50.0316C23.9115 50.0982 24.0679 50.22 24.3395 50.5925C24.6334 50.996 24.9655 51.5532 25.4921 52.443L28.6183 50.5925ZM20.7716 49.7485C21.835 49.7669 22.5086 49.7804 23.0221 49.8371C23.5019 49.8904 23.6878 49.9681 23.7967 50.0316L25.6231 46.8911C24.9141 46.4787 24.1763 46.3099 23.4219 46.2263C22.7012 46.1466 21.8302 46.1336 20.8342 46.1164L20.7716 49.7485ZM36.5078 52.443C37.0343 51.5532 37.3664 50.996 37.6604 50.5925C37.9319 50.22 38.0883 50.0982 38.2031 50.0316L36.3768 46.8911C35.6737 47.3002 35.1666 47.8463 34.7246 48.4528C34.3049 49.0287 33.8733 49.7618 33.3814 50.5925L36.5078 52.443ZM41.1658 46.1164C40.1697 46.1336 39.2988 46.1466 38.578 46.2263C37.8236 46.3099 37.0859 46.4787 36.3768 46.8911L38.2031 50.0316C38.3121 49.9681 38.4981 49.8904 38.9779 49.8371C39.4913 49.7804 40.1649 49.7669 41.2283 49.7485L41.1658 46.1164Z" fill="white"/>
<path d="M21.3125 23.7344H40.6875" stroke="white" stroke-width="3.875" stroke-linecap="round"/>
<path d="M21.3125 32.2109H34.6328" stroke="white" stroke-width="3.875" stroke-linecap="round"/>
</svg>
