<svg width="62" height="62" viewBox="0 0 62 62" fill="none" xmlns="http://www.w3.org/2000/svg">
<path d="M44.8208 54.25L48.2438 50.7625L42.2375 44.7562L38.75 48.1791C37.8888 49.0403 37.4691 50.0521 37.4906 51.2146C37.5122 52.3771 37.932 53.3888 38.75 54.25C39.6112 55.068 40.6229 55.4878 41.7854 55.5093C42.9479 55.5309 43.9597 55.1111 44.8208 54.25ZM50.8917 48.1146L54.3792 44.6916C55.2403 43.8305 55.6601 42.8187 55.6385 41.6562C55.617 40.4937 55.1757 39.482 54.3146 38.6208C53.4534 37.7597 52.4572 37.3291 51.3257 37.3291C50.1942 37.3291 49.1884 37.7597 48.3083 38.6208L44.8854 42.1083L50.8917 48.1146ZM47.5333 56.9625C45.9403 58.5555 44.0243 59.3521 41.7854 59.3521C39.5466 59.3521 37.6305 58.5555 36.0375 56.9625C34.4445 55.3695 33.6479 53.4534 33.6479 51.2146C33.6479 48.9757 34.4445 47.0597 36.0375 45.4666L45.5958 35.9083C47.1888 34.3153 49.1049 33.5187 51.3438 33.5187C53.5826 33.5187 55.4987 34.3153 57.0917 35.9083C58.6847 37.5013 59.4813 39.4174 59.4813 41.6562C59.4813 43.8951 58.6847 45.8111 57.0917 47.4041L47.5333 56.9625ZM11.625 54.25C10.5594 54.25 9.64724 53.8705 8.8886 53.1114C8.12953 52.3528 7.75 51.4406 7.75 50.375V11.625C7.75 10.5594 8.12953 9.64701 8.8886 8.88794C9.64724 8.1293 10.5594 7.74998 11.625 7.74998H24.8646C25.0799 6.24303 25.7688 5.00519 26.9313 4.03644C28.0938 3.06769 29.45 2.58331 31 2.58331C32.55 2.58331 33.9063 3.06769 35.0688 4.03644C36.2313 5.00519 36.9201 6.24303 37.1354 7.74998H50.375C51.4406 7.74998 52.3529 8.1293 53.112 8.88794C53.8706 9.64701 54.25 10.5594 54.25 11.625V29.9666C53.6042 29.7945 52.9583 29.6867 52.3125 29.6437C51.6667 29.6007 51.0208 29.6222 50.375 29.7083V11.625H11.625V50.375H29.7729C29.7299 51.0208 29.7406 51.6666 29.8052 52.3125C29.8698 52.9583 29.9882 53.6041 30.1604 54.25H11.625ZM31 10.5271C31.6028 10.5271 32.1302 10.301 32.5823 9.84894C33.0344 9.39685 33.2604 8.86943 33.2604 8.26665C33.2604 7.66386 33.0344 7.13644 32.5823 6.68435C32.1302 6.23227 31.6028 6.00623 31 6.00623C30.3972 6.00623 29.8698 6.23227 29.4177 6.68435C28.9656 7.13644 28.7396 7.66386 28.7396 8.26665C28.7396 8.86943 28.9656 9.39685 29.4177 9.84894C29.8698 10.301 30.3972 10.5271 31 10.5271ZM18.0833 21.9583V18.0833H43.9167V21.9583H18.0833ZM18.0833 32.9375V29.0625H43.9167V32.2271C43.7875 32.3132 43.6476 32.4208 43.4969 32.55C43.3461 32.6791 43.2062 32.8083 43.0771 32.9375H18.0833ZM18.0833 43.9166V40.0416H35.9729L33.2604 42.7541C33.0451 42.9695 32.8622 43.1632 32.7115 43.3354C32.5607 43.5076 32.3993 43.7013 32.2271 43.9166H18.0833Z" fill="white"/>
</svg>
