<svg width="92" height="92" viewBox="0 0 92 92" fill="none" xmlns="http://www.w3.org/2000/svg">
<path d="M46 22.6437L44.0579 24.5128C44.5661 25.0407 45.2672 25.339 46 25.339C46.7328 25.339 47.4339 25.0407 47.9421 24.5128L46 22.6437ZM28.0334 61.8882C26.8841 60.9423 25.1855 61.1073 24.2395 62.2566C23.2936 63.4062 23.4585 65.1046 24.6079 66.0505L28.0334 61.8882ZM11.2915 51.0732C12.0058 52.3791 13.6436 52.8589 14.9496 52.1445C16.2556 51.4304 16.7353 49.7927 16.021 48.4864L11.2915 51.0732ZM12.7578 35.7122C12.7578 27.9825 17.1255 21.5005 23.0875 18.7752C28.8796 16.1276 36.6622 16.8288 44.0579 24.5128L47.9421 20.7746C39.1665 11.6572 28.9803 10.1545 20.8465 13.8725C12.8826 17.5128 7.36719 25.9657 7.36719 35.7122H12.7578ZM33.4126 72.9534C35.2534 74.4045 37.2296 75.952 39.2323 77.1225C41.2343 78.2922 43.5189 79.2428 46 79.2428V73.8522C44.8874 73.8522 43.5782 73.4184 41.952 72.4682C40.3265 71.5184 38.6403 70.2103 36.7499 68.7199L33.4126 72.9534ZM58.5875 72.9534C63.7143 68.9118 70.2679 64.2806 75.4087 58.4918C80.642 52.5991 84.6328 45.2915 84.6328 35.7122H79.2422C79.2422 43.609 76.0107 49.6961 71.378 54.9124C66.6529 60.2329 60.697 64.4261 55.2503 68.7199L58.5875 72.9534ZM84.6328 35.7122C84.6328 25.9657 79.1175 17.5128 71.1534 13.8725C63.0196 10.1545 52.8335 11.6572 44.0579 20.7746L47.9421 24.5128C55.3376 16.8288 63.1203 16.1276 68.9123 18.7752C74.8743 21.5005 79.2422 27.9825 79.2422 35.7122H84.6328ZM55.2503 68.7199C53.3596 70.2103 51.6735 71.5184 50.048 72.4682C48.4218 73.4184 47.1126 73.8522 46 73.8522V79.2428C48.4811 79.2428 50.7657 78.2922 52.7677 77.1225C54.7705 75.952 56.7464 74.4045 58.5875 72.9534L55.2503 68.7199ZM36.7499 68.7199C33.8896 66.4652 30.9828 64.3158 28.0334 61.8882L24.6079 66.0505C27.5917 68.5065 30.7435 70.8492 33.4126 72.9534L36.7499 68.7199ZM16.021 48.4864C14.0041 44.7988 12.7578 40.6218 12.7578 35.7122H7.36719C7.36719 41.5972 8.87638 46.6575 11.2915 51.0732L16.021 48.4864Z" fill="#004482"/>
</svg>
