<svg width="36" height="36" viewBox="0 0 36 36" fill="none" xmlns="http://www.w3.org/2000/svg">
<path d="M16.3869 19.7624L13.6494 16.9124C13.4244 16.6625 13.1494 16.5374 12.8244 16.5374C12.4994 16.5374 12.2119 16.6499 11.9619 16.8749C11.7119 17.1249 11.5869 17.4125 11.5869 17.7374C11.5869 18.0624 11.7119 18.35 11.9619 18.5999L15.5994 22.1999C15.8244 22.4249 16.0869 22.5374 16.3869 22.5374C16.6869 22.5374 16.9494 22.4249 17.1744 22.1999L24.0369 15.3749C24.2619 15.1499 24.3744 14.8749 24.3744 14.5499C24.3744 14.225 24.2494 13.9499 23.9994 13.7249C23.7744 13.5249 23.5057 13.4312 23.1931 13.4437C22.8807 13.4562 22.6244 13.5624 22.4244 13.7624L16.3869 19.7624ZM12.4494 32.8499L10.1244 28.8749L5.47441 27.9374C5.19941 27.8874 4.96816 27.7374 4.78066 27.4874C4.59316 27.2375 4.52441 26.975 4.57441 26.6999L5.09941 22.1999L2.13691 18.7499C1.93691 18.5499 1.83691 18.2999 1.83691 17.9999C1.83691 17.6999 1.93691 17.45 2.13691 17.2499L5.09941 13.8374L4.57441 9.33743C4.52441 9.0624 4.59316 8.7999 4.78066 8.54993C4.96816 8.29995 5.19941 8.14995 5.47441 8.09993L10.1244 7.16242L12.4494 3.14992C12.5994 2.89992 12.8119 2.72492 13.0869 2.62492C13.3619 2.52492 13.6369 2.53742 13.9119 2.66242L17.9994 4.57492L22.0869 2.66242C22.3619 2.53742 22.6369 2.51867 22.9119 2.60617C23.1869 2.69367 23.3994 2.86242 23.5494 3.11242L25.9119 7.16242L30.5244 8.09993C30.7994 8.14995 31.0306 8.29995 31.2181 8.54993C31.4056 8.7999 31.4744 9.0624 31.4244 9.33743L30.8994 13.8374L33.8619 17.2499C34.0619 17.45 34.1619 17.6999 34.1619 17.9999C34.1619 18.2999 34.0619 18.5499 33.8619 18.7499L30.8994 22.1999L31.4244 26.6999C31.4744 26.975 31.4056 27.2375 31.2181 27.4874C31.0306 27.7374 30.7994 27.8874 30.5244 27.9374L25.9119 28.8749L23.5494 32.8874C23.3994 33.1374 23.1869 33.3062 22.9119 33.3937C22.6369 33.4812 22.3619 33.4625 22.0869 33.3374L17.9994 31.4249L13.9119 33.3374C13.6369 33.4625 13.3619 33.4749 13.0869 33.3749C12.8119 33.275 12.5994 33.0999 12.4494 32.8499ZM13.9869 30.7874L17.9994 29.0999L22.1244 30.7874L24.6369 27.0374L29.0244 25.9124L28.5744 21.4499L31.6119 17.9999L28.5744 14.4749L29.0244 10.0124L24.6369 8.96243L22.0494 5.21242L17.9994 6.89992L13.8744 5.21242L11.3619 8.96243L6.97441 10.0124L7.42441 14.4749L4.38691 17.9999L7.42441 21.4499L6.97441 25.9874L11.3619 27.0374L13.9869 30.7874Z" fill="#004482"/>
</svg>
