<svg width="85" height="85" viewBox="0 0 85 85" fill="none" xmlns="http://www.w3.org/2000/svg">
<path d="M85 42.5C85 34.676 78.6574 28.3333 70.8333 28.3333H56.6667V56.6667H70.8333C78.6574 56.6667 85 50.324 85 42.5Z" fill="#004482"/>
<path d="M-1.23849e-06 42.5C-5.54491e-07 50.324 6.34263 56.6667 14.1667 56.6667L28.3333 56.6667L28.3333 42.5C28.3333 34.676 21.9907 28.3333 14.1667 28.3333C6.34263 28.3333 -1.92249e-06 34.676 -1.23849e-06 42.5Z" fill="#004482"/>
<path d="M28.334 14.1667C28.334 21.9907 34.6766 28.3333 42.5006 28.3333L56.6673 28.3333L56.6673 14.1667C56.6673 6.34264 50.3247 -1.51392e-08 42.5006 6.68859e-07C34.6766 1.35286e-06 28.334 6.34264 28.334 14.1667Z" fill="#004482"/>
<path d="M42.4993 85C50.3234 85 56.666 78.6574 56.666 70.8333L56.666 56.6667L28.3327 56.6667L28.3327 70.8333C28.3327 78.6574 34.6753 85 42.4993 85Z" fill="#004482"/>
</svg>
