<svg width="32" height="32" viewBox="0 0 32 32" fill="none" xmlns="http://www.w3.org/2000/svg">
<path d="M2.35844 24.0846C2.49518 25.151 2.9873 26.1402 3.75536 26.8925C4.52342 27.6448 5.52259 28.1163 6.59158 28.2309C9.6293 28.5509 12.7744 28.8846 15.9996 28.8846C19.2224 28.8846 22.3699 28.5486 25.4076 28.2309C26.4769 28.1171 27.4765 27.6458 28.2447 26.8934C29.0129 26.1409 29.5048 25.1513 29.6407 24.0846C29.9653 21.4698 30.2853 18.7681 30.2853 16.0001C30.2853 13.2343 29.9653 10.5303 29.6407 7.91548C29.5045 6.84869 29.0125 5.85898 28.2444 5.10622C27.4763 4.35347 26.4769 3.88162 25.4076 3.76691C22.3699 3.45148 19.2224 3.11777 15.9996 3.11777C12.7767 3.11777 9.6293 3.45377 6.59158 3.77148C5.5223 3.8853 4.52269 4.35656 3.75449 5.10901C2.98628 5.86145 2.4944 6.85107 2.35844 7.91777C2.03387 10.5303 1.71387 13.2343 1.71387 16.0001C1.71387 18.7658 2.03387 21.4698 2.35844 24.0846Z" stroke="#004482" stroke-width="2.28571" stroke-linecap="round" stroke-linejoin="round"/>
<path d="M2.42285 7.32346L13.1703 15.7989C13.9766 16.4344 14.9734 16.78 16 16.78C17.0266 16.78 18.0234 16.4344 18.8297 15.7989L29.5771 7.32346" stroke="#004482" stroke-width="2.28571" stroke-linecap="round" stroke-linejoin="round"/>
</svg>
