<svg id="Слой_1" data-name="Слой 1" xmlns="http://www.w3.org/2000/svg" viewBox="0 0 304 66"><defs><style>.cls-1{fill:#002845;}</style></defs><title>Монтажная область 1</title><path class="cls-1" d="M45.1,54.32a20,20,0,0,1,0-39.79V7.1a27.39,27.39,0,0,0,0,54.64Z"/><path class="cls-1" d="M49.14,14.53a20,20,0,0,1,0,39.79v7.42a27.39,27.39,0,0,0,0-54.64Z"/><path class="cls-1" d="M9.67,39.26A4.89,4.89,0,1,0,4.8,34.37,4.88,4.88,0,0,0,9.67,39.26Z"/><path class="cls-1" d="M56.81,39.26a4.89,4.89,0,1,0-4.87-4.89A4.88,4.88,0,0,0,56.81,39.26Z"/><path class="cls-1" d="M196.4,42.39,194,49.51l-2.42-7.12h-4.16l4.12,10.76c-.26.55-1.06.81-2.32.81a6.92,6.92,0,0,1-2.57-.44v3.56a8.26,8.26,0,0,0,2.74.44c4.12,0,6.21-2.6,7.79-6.72l3.22-8.41Z"/><path class="cls-1" d="M181.43,44.15V42.39h-3.7V53.2h3.86V48A3.38,3.38,0,0,1,185,45.86a3.5,3.5,0,0,1,1.27.22V42.39a4.27,4.27,0,0,0-1.19-.14A4,4,0,0,0,181.43,44.15Z"/><path class="cls-1" d="M176.18,42.39h-3.86c.08,2.42-1.08,3.66-3.66,3.69V38.39H164.8V53.2h3.86V49.52a13.27,13.27,0,0,0,1.67-.13l1.91,3.81h4.4L173.73,48A6.94,6.94,0,0,0,176.18,42.39Z"/><path class="cls-1" d="M154.64,53l-3.52-9h1.79l2.55,7,2.52-7h1.74l-3.6,9Z"/><path class="cls-1" d="M142,50.45c0-1.85,1.28-2.93,3.5-2.93a3.86,3.86,0,0,1,2.78,1.08v-.86c0-1.63-.68-2.49-2.53-2.49a6.4,6.4,0,0,0-3.12.83V44.62a6.64,6.64,0,0,1,3.29-.77c2.72,0,3.91,1.22,3.91,3.74V53h-1.55V51.89a4,4,0,0,1-3.21,1.34C143.18,53.23,142,52.18,142,50.45Zm1.6-.09c0,1,.65,1.55,1.76,1.55a2.78,2.78,0,0,0,2.88-1.82,3.44,3.44,0,0,0-2.71-1.3C144.29,48.79,143.6,49.35,143.6,50.36Z"/><path class="cls-1" d="M133,50.71V41h1.55v9.46c0,.94.19,1.35,1.43,1.35a3.54,3.54,0,0,0,1.28-.24v1.37a4.22,4.22,0,0,1-1.6.28C133.7,53.21,133,52.35,133,50.71Z"/><path class="cls-1" d="M130.29,51.08v1.37a6,6,0,0,1-3.16.78c-3.11,0-4.68-1.74-4.68-4.55s1.73-4.83,4.29-4.83,4.11,1.87,4.11,4.63a4.39,4.39,0,0,1,0,.61h-6.72c.14,1.87,1.11,2.76,3.14,2.76A6.1,6.1,0,0,0,130.29,51.08Zm-3.57-5.88c-1.49,0-2.41,1-2.61,2.71h5.1C129.06,46.16,128.19,45.2,126.72,45.2Z"/><path class="cls-1" d="M111.2,48.56c0-3,1.88-4.71,4.22-4.71a3.6,3.6,0,0,1,3.24,1.85V41h1.55V53h-1.55V51.25a3.56,3.56,0,0,1-3.26,2C113.06,53.21,111.2,51.55,111.2,48.56Zm1.64,0c0,2.07,1.16,3.27,2.7,3.27s2.78-1.39,3.12-3.24v-.12c-.34-1.85-1.6-3.22-3.12-3.22S112.84,46.3,112.84,48.55Z"/><path class="cls-1" d="M97.13,53v-9h1.56v2a3.81,3.81,0,0,1,3.38-2.16c1.6,0,3,.87,3,3.65V53H103.5V47.67c0-1.68-.72-2.42-1.79-2.42-1.37,0-2.27,1-3,2.92V53Z"/><path class="cls-1" d="M88.24,53V41h6.65v1.44h-5v3.85h4.32v1.43H89.84V51.6h5V53Z"/><path class="cls-1" d="M87,29.29V12.71h7.37c3.12,0,6.24,2,6.24,6a6.06,6.06,0,0,1-6.24,6.08H91.63v4.46ZM92.9,16.37H91.63v4.81h1.29c2,0,3-.78,3-2.41S95,16.37,92.9,16.37Z"/><path class="cls-1" d="M106.87,29.66A9,9,0,0,1,102,28.44V24.85a10,10,0,0,0,5,1.63c1.2,0,1.81-.42,1.81-.9,0-1.6-7,0-7-4.87,0-2.79,2.29-4.58,6-4.58a10.3,10.3,0,0,1,4.83,1.09v3.56a10.83,10.83,0,0,0-4.58-1.3c-1.19,0-1.78.42-1.78.92,0,1.58,7,.07,7,4.67C113.25,27.75,110.83,29.66,106.87,29.66Z"/><path class="cls-1" d="M128.58,16.6,123.37,29c-1.9,4.47-4.2,5.68-7.34,5.68A8.21,8.21,0,0,1,112.7,34V30.11a10.08,10.08,0,0,0,3,.5,4.25,4.25,0,0,0,2.84-.95L113.28,16.6h5.23l2.38,8,2.76-7.95Z"/><path class="cls-1" d="M129.86,29.29V12.71h4.48v8.16c3.35-.35,3.94-2.26,3.94-4.27h4.48a7.33,7.33,0,0,1-3.07,6.18l3.57,6.51h-5.1l-2.25-4.86a12.53,12.53,0,0,1-1.57.26v4.6Z"/><path class="cls-1" d="M144.29,12.83a2.54,2.54,0,1,1,2.53,2.43A2.42,2.42,0,0,1,144.29,12.83Zm.28,16.46V16.6h4.48V29.29Z"/><path class="cls-1" d="M150.58,25.7c0-2.71,1.83-4.29,5-4.29a5,5,0,0,1,3.59,1.32v-.37c0-1.94-.72-2.53-3.12-2.53a12.53,12.53,0,0,0-4.6,1V17.31A13.06,13.06,0,0,1,157,16.2c4.67,0,6.74,1.63,6.74,5.38v7.71h-4.51V28a4.84,4.84,0,0,1-3.94,1.7C152.27,29.71,150.58,28.3,150.58,25.7Zm4.27-.21c0,.83.59,1.25,1.72,1.25a2.87,2.87,0,0,0,2.58-1.41,3,3,0,0,0-2.51-1.18C155.53,24.1,154.85,24.62,154.85,25.49Z"/><path class="cls-1" d="M167,25v-5h-2V16.6h2v-3h4.48v3H176v3.33h-4.49v3.75c0,1.24.64,1.93,2.12,1.93a7.7,7.7,0,0,0,2.37-.43v3.73a9,9,0,0,1-3.71.68C168.89,29.59,167,28,167,25Z"/><path class="cls-1" d="M177.52,29.29V16.6H182v1.65a4.43,4.43,0,0,1,3.75-1.88,3.84,3.84,0,0,1,.87.09v4a8,8,0,0,0-1.41-.14,3.47,3.47,0,0,0-3.21,2.4v6.56Z"/><path class="cls-1" d="M187.85,12.83a2.54,2.54,0,1,1,2.54,2.43A2.42,2.42,0,0,1,187.85,12.83Zm.28,16.46V16.6h4.49V29.29Z"/><path class="cls-1" d="M199,16.6V18a5,5,0,0,1,4-1.82c3.26,0,6.15,2.34,6.15,6.79S206,29.66,203,29.66a4.7,4.7,0,0,1-3.73-1.74v6.34h-4.48V16.6Zm3,3.3c-1.15,0-2.16.9-3,3.09.64,1.94,1.86,3,3,3,1.34,0,2.44-1.14,2.44-3.07S203.32,19.9,202,19.9Z"/><path class="cls-1" d="M210.16,25.7c0-2.71,1.84-4.29,5-4.29a5,5,0,0,1,3.59,1.32v-.37c0-1.94-.73-2.53-3.12-2.53a12.44,12.44,0,0,0-4.6,1V17.31a13,13,0,0,1,5.49-1.11c4.67,0,6.73,1.63,6.73,5.38v7.71h-4.5V28a4.87,4.87,0,0,1-3.94,1.7C211.85,29.71,210.16,28.3,210.16,25.7Zm4.28-.21c0,.83.58,1.25,1.71,1.25a2.86,2.86,0,0,0,2.58-1.41,3,3,0,0,0-2.51-1.18C215.12,24.1,214.44,24.62,214.44,25.49Z"/><path class="cls-1" d="M225.42,29.29V16.6h4.48v1.65a4.43,4.43,0,0,1,3.76-1.88,3.7,3.7,0,0,1,.86.09v4a7.87,7.87,0,0,0-1.4-.14,3.49,3.49,0,0,0-3.22,2.4v6.56Z"/><path class="cls-1" d="M237.41,25v-5h-2V16.6h2v-3h4.48v3h4.48v3.33h-4.48v3.75c0,1.24.64,1.93,2.11,1.93a7.65,7.65,0,0,0,2.37-.43v3.73a9,9,0,0,1-3.7.68C239.26,29.59,237.41,28,237.41,25Z"/><path class="cls-1" d="M247.9,29.29V16.6h4.48v1.77a5.37,5.37,0,0,1,4.27-2.12c3.19,0,5,1.65,5,5.92v7.12h-4.5v-7c0-1.67-.38-2.38-1.69-2.38s-2.25.8-3,2.64v6.7Z"/><path class="cls-1" d="M275.64,25.28v3.3a10.69,10.69,0,0,1-5.05,1.15c-5.35,0-7.51-2.61-7.51-6.55,0-4.43,2.72-7,6.81-7s6.62,2.48,6.62,6.72a7.7,7.7,0,0,1-.12,1.35h-8.54c.37,1.46,1.43,2,3.28,2A11.14,11.14,0,0,0,275.64,25.28Zm-5.8-5.73c-1.29,0-1.95.85-2.11,2.33h4.18C271.77,20.38,271.11,19.55,269.84,19.55Z"/><path class="cls-1" d="M278.15,29.29V16.6h4.48v1.65a4.46,4.46,0,0,1,3.76-1.88,3.84,3.84,0,0,1,.87.09v4a8.09,8.09,0,0,0-1.41-.14,3.5,3.5,0,0,0-3.22,2.4v6.56Z"/><path class="cls-1" d="M293.2,29.66a9,9,0,0,1-4.88-1.22V24.85a10,10,0,0,0,5,1.63c1.2,0,1.81-.42,1.81-.9,0-1.6-7,0-7-4.87,0-2.79,2.3-4.58,6-4.58a10.31,10.31,0,0,1,4.84,1.09v3.56a10.83,10.83,0,0,0-4.58-1.3c-1.2,0-1.78.42-1.78.92,0,1.58,7,.07,7,4.67C299.59,27.75,297.17,29.66,293.2,29.66Z"/></svg>