<svg width="254" height="90" viewBox="0 0 254 90" fill="none" xmlns="http://www.w3.org/2000/svg">
<path d="M226.558 63.0186L224.115 70.072L221.7 63.0186H217.545L221.664 73.6748C221.403 74.2247 220.607 74.4767 219.352 74.4767C218.388 74.4767 217.645 74.3577 216.782 74.0407V77.5693C217.706 77.8866 218.609 78.0055 219.512 78.0055C223.627 78.0055 225.715 75.4284 227.301 71.3447L230.512 63.0186H226.558Z" fill="#0F3151"/>
<path d="M211.603 64.7547V63.0185H207.909V73.7235H211.763V68.553C212.52 67.0449 213.513 66.4481 215.196 66.4481C215.678 66.4481 215.979 66.5077 216.461 66.6664V63.0185C216.059 62.9195 215.778 62.8799 215.276 62.8799C213.563 62.8799 212.553 63.4548 211.603 64.7547Z" fill="#0F3151"/>
<path d="M206.364 63.0186H202.51C202.59 65.4123 201.429 66.6408 198.856 66.6664V59.0538H195.002V73.7235H198.856V70.076C199.413 70.0745 199.969 70.0326 200.519 69.9511L202.429 73.7235H206.825L203.917 68.5859C205.472 67.383 206.308 65.4862 206.364 63.0186Z" fill="#0F3151"/>
<path d="M184.846 73.5651L181.335 64.6644H183.125L185.664 71.6287L188.187 64.6644H189.926L186.329 73.5651H184.846Z" fill="#0F3151"/>
<path d="M172.225 71.0001C172.225 69.1658 173.503 68.0957 175.719 68.0957C176.844 68.0957 177.73 68.4523 178.497 69.1658V68.3164C178.497 66.7026 177.815 65.8535 175.974 65.8535C174.884 65.8535 173.861 66.1252 172.855 66.6686V65.2249C173.963 64.6644 174.918 64.4605 176.145 64.4605C178.855 64.4605 180.048 65.6665 180.048 68.1635V73.5651H178.497V72.4269C177.764 73.2763 176.69 73.7519 175.293 73.7519C173.401 73.7519 172.225 72.7158 172.225 71.0001ZM173.827 70.9152C173.827 71.8835 174.474 72.4441 175.582 72.4441C176.997 72.4441 178.037 71.8326 178.463 70.6435C177.713 69.7941 176.844 69.3526 175.753 69.3526C174.509 69.3526 173.827 69.9131 173.827 70.9152Z" fill="#0F3151"/>
<path d="M163.254 71.255V61.6238H164.805V71.0002C164.805 71.9345 164.993 72.342 166.237 72.342C166.578 72.342 167.021 72.2911 167.515 72.1043V73.4633C167.004 73.667 166.441 73.735 165.913 73.735C163.936 73.735 163.254 72.8857 163.254 71.255Z" fill="#0F3151"/>
<path d="M160.527 71.6287V72.9877C159.76 73.4971 158.55 73.7519 157.374 73.7519C154.271 73.7519 152.703 72.0363 152.703 69.2508C152.703 66.346 154.425 64.4605 156.981 64.4605C159.521 64.4605 161.089 66.312 161.089 69.0469C161.089 69.3357 161.072 69.4884 161.055 69.6583H154.339C154.476 71.5098 155.447 72.3932 157.476 72.3932C158.55 72.3932 159.624 72.1552 160.527 71.6287ZM156.964 65.8024C155.482 65.8024 154.561 66.7876 154.357 68.4863H159.453C159.3 66.7535 158.43 65.8024 156.964 65.8024Z" fill="#0F3151"/>
<path d="M141.467 69.1318C141.467 66.1421 143.342 64.4605 145.677 64.4605C147.109 64.4605 148.183 65.106 148.915 66.2951V61.6238H150.467V73.5652H148.915V71.7986C148.166 73.0724 147.109 73.735 145.66 73.735C143.325 73.735 141.467 72.0875 141.467 69.1318ZM143.103 69.1147C143.103 71.17 144.262 72.3592 145.796 72.3592C147.467 72.3592 148.575 70.9833 148.915 69.1487V69.0297C148.575 67.1954 147.313 65.8364 145.796 65.8364C144.262 65.8364 143.103 66.8897 143.103 69.1147Z" fill="#0F3151"/>
<path d="M127.417 73.5651V64.6644H128.968V66.6008C129.837 65.1569 130.945 64.4605 132.343 64.4605C133.945 64.4605 135.326 65.3268 135.326 68.0785V73.5651H133.775V68.2484C133.775 66.5839 133.059 65.8535 131.985 65.8535C130.621 65.8535 129.718 66.7876 128.968 68.7411V73.5651H127.417Z" fill="#0F3151"/>
<path d="M118.533 73.5652V61.6238H125.181V63.0506H120.135V66.8725H124.448V68.2824H120.135V72.1384H125.181V73.5652H118.533Z" fill="#0F3151"/>
<path d="M118.149 50.625V18.9901H132.328C138.334 18.9901 144.34 22.8601 144.34 30.51C144.34 37.845 138.289 42.12 132.328 42.12H127.09V50.625H118.149ZM129.529 25.9651H127.09V35.145H129.574C133.412 35.145 135.444 33.66 135.444 30.555C135.444 27.5401 133.502 25.9651 129.529 25.9651Z" fill="#0F3151"/>
<path d="M147.65 50.625V18.9901H161.287C168.422 18.9901 173.208 22.0501 173.208 28.0351C173.208 31.185 171.447 33.345 168.964 34.65C172.034 35.91 173.931 38.565 173.931 41.895C173.931 47.25 169.37 50.625 161.468 50.625H147.65ZM161.152 25.6051H156.591V32.13H161.152C163.635 32.13 164.493 30.465 164.493 28.8C164.493 27.0901 163.455 25.6051 161.152 25.6051ZM161.649 37.665H156.591V44.01H161.649C164.177 44.01 165.126 42.48 165.126 40.95C165.126 39.33 164.313 37.665 161.649 37.665Z" fill="#0F3151"/>
<path d="M177.593 50.625V18.9901H185.676L195.384 33.48L205.318 18.9901H213.266V50.625H204.776V33.21L197.371 44.505H192.991L186.082 33.39V50.625H177.593Z" fill="#0F3151"/>
<path d="M35.8818 40.779C35.8818 38.8367 37.4637 37.2687 39.4043 37.2687H56.3001V21.128C56.3001 19.1943 57.8734 17.6263 59.8225 17.6263C61.763 17.6263 63.3452 19.1943 63.3452 21.128V40.779C63.3452 41.7198 62.978 42.5995 62.3136 43.2616C61.6493 43.9236 60.7665 44.2808 59.8312 44.2808H39.413C37.4549 44.2895 35.8818 42.7129 35.8818 40.779Z" fill="#002845"/>
<path d="M69.3232 44.6467C68.3967 44.6467 67.4876 44.2721 66.832 43.6188C66.1767 42.9654 65.8008 42.0595 65.8008 41.1362V20.7883C65.8008 18.8458 67.3742 17.2866 69.3232 17.2866C71.2638 17.2866 72.8369 18.8546 72.8369 20.7883V37.6346H100.58C102.52 37.6346 104.094 39.2026 104.094 41.1449C104.094 43.0788 102.52 44.6555 100.58 44.6555H69.3232V44.6467Z" fill="#002845"/>
<path d="M65.4512 70.2121V50.5699C65.4512 49.6465 65.8271 48.7406 66.4739 48.0873C67.1293 47.4339 68.047 47.0593 68.9648 47.0593H89.3833C91.3324 47.0593 92.897 48.6273 92.897 50.5699C92.897 52.5035 91.3236 54.0802 89.3833 54.0802H72.4875V70.2121C72.4875 72.146 70.9141 73.7227 68.9648 73.7227C67.0246 73.7227 65.4512 72.146 65.4512 70.2121Z" fill="#002845"/>
<path d="M55.9413 70.5605V53.723H26.1006C24.1515 53.723 22.5781 52.1553 22.5781 50.2127C22.5781 48.2791 24.1515 46.7024 26.1006 46.7024H59.464C60.3905 46.7024 61.2996 47.077 61.9549 47.7301C62.6105 48.3921 62.9864 49.2893 62.9864 50.2127V70.5605C62.9864 72.4944 61.4043 74.0711 59.464 74.0711C57.5234 74.0711 55.9413 72.4944 55.9413 70.5605Z" fill="#002845"/>
</svg>
