<svg width="32" height="32" viewBox="0 0 32 32" fill="none" xmlns="http://www.w3.org/2000/svg">
<path d="M2 8.66667C2 4.98467 4.98467 2 8.66667 2H9.046C9.44568 2.00007 9.83618 2.11988 10.1671 2.34399C10.4981 2.5681 10.7543 2.88623 10.9027 3.25733L12.5467 7.36667C12.7405 7.85119 12.788 8.38195 12.6831 8.89317C12.5782 9.40439 12.3256 9.87361 11.9567 10.2427L9.90533 12.294C9.57667 12.6227 9.43867 13.1007 9.57333 13.546C10.2126 15.6404 11.3568 17.5457 12.9052 19.0941C14.4537 20.6425 16.3589 21.7867 18.4533 22.426C18.8987 22.5613 19.3767 22.4227 19.7053 22.094L21.7567 20.0427C22.1257 19.6737 22.5949 19.4211 23.1062 19.3162C23.6174 19.2114 24.1481 19.2588 24.6327 19.4527L28.7427 21.0967C29.1138 21.2451 29.4319 21.5013 29.656 21.8322C29.8801 22.1632 29.9999 22.5537 30 22.9533V23.3333C30 27.0153 27.0153 30 23.3333 30H23C11.5933 30 2.31067 20.9053 2.00733 9.572C2.00733 9.56867 2.006 9.56533 2.004 9.56333C2.00278 9.56224 2.00179 9.56091 2.0011 9.55941C2.00041 9.55792 2.00004 9.55631 2 9.55467V8.66667Z" stroke="#004482" stroke-width="2" stroke-linejoin="round"/>
</svg>
